Inverse Dynamics Generalized Forces																																												
version=1																																												
nRows=12																																												
nColumns=45																																												
inDegrees=no																																												
endheader																																												
time	pelvis_tilt_moment	pelvis_list_moment	pelvis_rotation_moment	pelvis_tx_force	pelvis_ty_force	pelvis_tz_force	hip_flexion_r_moment	hip_adduction_r_moment	hip_rotation_r_moment	hip_flexion_l_moment	hip_adduction_l_moment	hip_rotation_l_moment	lumbar_extension_moment	lumbar_bending_moment	lumbar_rotation_moment	knee_angle_r_moment	knee_adduction_r_moment	knee_angle_r_beta_force	knee_angle_l_moment	knee_adduction_l_moment	knee_angle_l_beta_force	thoracic_extension_moment	thoracic_bending_moment	thoracic_rotation_moment	ankle_angle_r_moment	ankle_angle_l_moment	arm_flex_r_moment	arm_add_r_moment	arm_rot_r_moment	arm_flex_l_moment	arm_add_l_moment	arm_rot_l_moment	subtalar_angle_r_moment	subtalar_angle_l_moment	elbow_flex_r_moment	elbow_flex_l_moment	mtp_angle_r_moment	mtp_angle_l_moment	pro_sup_r_moment	pro_sup_l_moment	wrist_flex_r_moment	wrist_dev_r_moment	wrist_flex_l_moment	wrist_dev_l_moment
0.798214286	-0.083225404	-0.026602639	-0.070249035	0.129576247	0.077526922	0.884692305	16.60492009	-4.141027414	-0.844614659	-13.75781197	-68.76528677	13.28389627	9.47572247	-3.254143678	-4.693749937	-7.214173373	0.801289801	-0.009623597	-40.54977368	-40.44400938	-0.025087823	13.41982431	-3.29354672	-4.588960292	1.744395008	-61.84665185	2.348485614	-3.018120106	-0.731356225	2.322955516	-3.527273053	-0.520412172	-0.304238315	11.93965361	2.178000586	1.252068622	-0.126239038	6.079652306	-0.075469852	-0.056760943	-0.026950456	-0.264596137	-0.086155175	-0.205316033
0.808857143	-0.066396001	-0.013825861	-0.074894727	0.576591785	0.742127626	0.886147232	15.34146782	-3.717299446	-0.966625977	-11.48454918	-64.43376295	11.286155	8.387443529	-2.707048894	-3.224230383	-5.868930761	0.910773551	-0.008289665	-35.77987236	-38.16471124	-0.024795639	13.32044867	-2.227059569	-3.044629568	1.316903776	-61.55505167	3.234545972	-2.241302879	-0.572612987	2.450231027	-3.366410088	-0.501071993	-0.211050919	10.80958275	2.426352687	1.310739084	-0.059386091	6.292584219	-0.073963944	-0.052651444	0.001248277	-0.295273943	-0.07690758	-0.208123064
0.8195	-0.057620217	-0.064079143	-0.076498346	0.730271462	0.818255142	0.862691163	13.85581048	-3.569540215	-0.902757529	-9.379014537	-60.48473753	9.358233922	7.538231001	-1.964859893	-1.817307639	-4.358535634	0.915606036	-0.007269089	-31.42439373	-36.09373692	-0.025506882	13.1076961	-1.246733424	-1.616787865	0.772390832	-61.76859532	3.932316088	-1.589857175	-0.441824801	2.560973064	-3.240116421	-0.520976132	0.016921797	9.877826822	2.602317607	1.357130015	0.005576515	6.525644591	-0.072080356	-0.052938469	0.024066069	-0.316734399	-0.073737449	-0.209749306
0.830142857	-0.06845599	-0.117941573	-0.075637254	0.448617323	0.440531996	0.848744836	12.27665525	-3.677466301	-0.728083396	-7.520641567	-57.07899218	7.578158116	6.970716147	-1.219400802	-0.54708774	-2.938030251	0.809979396	-0.005802816	-27.45147058	-34.27509901	-0.026628712	12.94789825	-0.509297137	-0.371826826	0.48656881	-62.04678656	4.449886534	-1.129909028	-0.351279775	2.678155728	-3.113127071	-0.561560019	0.195225616	9.088406447	2.701887251	1.40231741	0.035897181	6.69966206	-0.070389171	-0.056010007	0.038592552	-0.329107759	-0.073543932	-0.21125199
0.840785714	-0.091081288	-0.03277202	-0.077215684	-0.082464249	0.38350121	0.900535036	10.63654137	-3.708876344	-0.566392725	-5.649196544	-54.11797617	6.083051028	6.56931464	-1.007361504	0.530036579	-1.963717646	0.545703795	-0.002589362	-23.26777988	-32.69746609	-0.026692283	13.12055856	-0.23665392	0.696791361	1.086588058	-60.77958773	4.96419911	-0.863916027	-0.303035349	2.897278577	-2.825215988	-0.556050721	-0.071049345	8.105810019	2.768564689	1.496991986	-0.01483251	6.841838206	-0.069676735	-0.055566965	0.044044225	-0.338301118	-0.063799004	-0.217012901
0.851428571	-0.042300545	-0.013238996	-0.042897489	0.24059364	0.291769498	0.414334144	9.200246473	-3.405758584	-0.364269929	-4.006729294	-51.70090576	4.860253663	6.155426845	-1.002265388	1.385351519	-0.877923917	0.348503384	-0.000569966	-19.29695143	-31.27483696	-0.026994576	12.99071104	-0.201470799	1.539555647	1.321600124	-60.08870894	5.24938956	-0.920525756	-0.317177785	2.866005403	-2.833956676	-0.595683182	-0.177296551	7.504626908	2.757695454	1.496963814	-0.042503105	6.944525514	-0.071128938	-0.056522931	0.03614643	-0.340758765	-0.064305866	-0.214680308
0.862071428	-0.105513639	-0.070965746	-0.04227532	-0.267865735	0.760604867	0.639224687	8.0025411	-3.039335553	-0.463061288	-2.374182712	-49.58328832	3.600951979	5.717056574	-1.101853413	2.100910955	-0.030972357	0.458403652	0.001120741	-15.82840872	-30.15257668	-0.027982016	13.07835342	-0.371429496	2.224650779	1.596452852	-59.77343255	5.763202971	-1.182856831	-0.382419736	3.089429191	-3.065614908	-0.702276867	-0.236210023	6.913163589	2.838521724	1.566232172	-0.130980804	6.844627342	-0.077822634	-0.062689466	0.020305987	-0.35725735	-0.076117174	-0.225186297
0.872714285	-0.124889186	-0.074320147	-0.059468062	-0.271202807	0.692774792	0.785132605	7.106688908	-2.264704593	-0.652952735	-0.774482923	-47.91868289	2.498541296	5.228613012	-1.389944847	2.688439712	0.499010612	0.796601502	0.002105701	-12.91698015	-29.08517193	-0.027949766	13.6082261	-0.723913343	2.786131144	2.533727824	-59.24366501	6.590007591	-1.290087962	-0.421956657	3.873578535	-3.228893576	-0.855038451	-0.326027787	6.472353938	3.049280916	1.805642815	-0.579249483	6.47493648	-0.085662611	-0.074412856	0.0120647	-0.388629818	-0.09216802	-0.25767921
0.883357143	-0.153365961	-0.066297277	-0.045107263	-0.136237474	0.592388673	0.75331218	6.174482315	-1.456870332	-0.96827519	0.790470485	-46.66122965	1.49766819	4.802673774	-1.834624996	3.113312427	0.68189289	1.243321085	0.001149395	-10.29602584	-28.18492289	-0.027719343	14.10929689	-1.08403585	3.218330256	2.731259081	-58.95599575	7.350513474	-1.454257444	-0.466552568	4.705286303	-3.335023996	-1.000523169	-0.227574989	6.184275351	3.251605943	2.078793001	-0.855863825	6.182549727	-0.093943914	-0.085257854	0.001999615	-0.419189355	-0.103971297	-0.292505363
0.894	-0.177700115	-0.069861062	-3.30E-05	-0.137270434	0.719384367	0.660780651	5.15949616	-0.772497032	-1.422426534	2.273211322	-45.64309493	0.545801494	4.508697947	-2.345772355	3.388631969	0.637094993	1.733439876	-0.001063217	-7.816365966	-27.44290918	-0.027591497	14.44199076	-1.357699205	3.533947008	2.087905018	-58.95810154	7.833960874	-1.678419774	-0.511904191	5.355063907	-3.369276821	-1.11228587	-0.00104131	5.993055766	3.371470952	2.32294521	-0.802826359	6.061130591	-0.100624402	-0.092642586	-0.010005318	-0.43929668	-0.108133184	-0.320872099
0.904642857	-0.093250658	-0.096457403	0.046185372	-0.061321479	0.863950378	0.531635117	4.277905684	-0.107869115	-1.947384778	3.541452005	-44.66810369	-0.360927185	4.362566834	-2.761438837	3.55919554	0.673410871	2.244521872	-0.002821929	-5.484428019	-26.70586202	-0.027354051	14.66286815	-1.493766668	3.753332215	1.453427753	-59.16795703	7.931017153	-1.774621856	-0.519230613	5.804420484	-3.313918328	-1.194433303	0.14723944	5.914355783	3.378812238	2.524813181	-0.593757416	5.996549962	-0.102115366	-0.097745287	-0.0154876	-0.442953405	-0.106941518	-0.341683689
0.915285714	0.082651342	-0.136088137	0.073619324	0.135366249	0.901637631	0.368860871	3.620666849	0.595021356	-2.475671685	4.495885685	-43.65483725	-1.219252788	4.360131026	-2.947750755	3.664079069	1.018949726	2.746848491	-0.003213443	-3.286597384	-25.90601078	-0.02689851	14.80807537	-1.453590334	3.895045948	1.331643717	-59.54784218	7.617082757	-1.65802024	-0.472375396	6.023483585	-3.163188754	-1.245141803	0.108275101	5.947217708	3.26534053	2.669982531	-0.365642351	5.911462498	-0.096974123	-0.101034678	-0.01077084	-0.428119441	-0.101662494	-0.353595277
